<?xml version="1.0" encoding="UTF-8"?>
<svg xmlns="http://www.w3.org/2000/svg" xmlns:xlink="http://www.w3.org/1999/xlink" width="45px" height="12px" viewBox="0 0 44 12" version="1.1">
<g id="surface1">
<path style=" stroke:none;fill-rule:nonzero;fill:rgb(13.72549%,12.156863%,12.54902%);fill-opacity:1;" d="M 26.769531 7.96875 L 26.769531 4.460938 L 25.46875 4.460938 L 25.46875 3.988281 L 28.601562 3.988281 L 28.601562 4.460938 L 27.292969 4.460938 L 27.292969 7.96875 Z M 26.769531 7.96875 "/>
<path style=" stroke:none;fill-rule:nonzero;fill:rgb(13.72549%,12.156863%,12.54902%);fill-opacity:1;" d="M 29.148438 7.96875 L 29.148438 3.988281 L 32.007812 3.988281 L 32.007812 4.460938 L 29.671875 4.460938 L 29.671875 5.679688 L 31.859375 5.679688 L 31.859375 6.144531 L 29.671875 6.144531 L 29.671875 7.5 L 32.097656 7.5 L 32.097656 7.96875 Z M 29.148438 7.96875 "/>
<path style=" stroke:none;fill-rule:nonzero;fill:rgb(13.72549%,12.156863%,12.54902%);fill-opacity:1;" d="M 35.640625 6.574219 L 36.164062 6.707031 C 36.054688 7.140625 35.859375 7.46875 35.574219 7.695312 C 35.289062 7.921875 34.941406 8.035156 34.527344 8.035156 C 34.117188 8.035156 33.753906 7.949219 33.488281 7.773438 C 33.222656 7.601562 33.019531 7.347656 32.878906 7.015625 C 32.738281 6.683594 32.667969 6.328125 32.667969 5.949219 C 32.667969 5.535156 32.75 5.171875 32.90625 4.867188 C 33.0625 4.558594 33.285156 4.324219 33.578125 4.164062 C 33.867188 4.003906 34.1875 3.921875 34.535156 3.921875 C 34.929688 3.921875 35.265625 4.023438 35.535156 4.226562 C 35.804688 4.429688 35.992188 4.714844 36.097656 5.082031 L 35.582031 5.203125 C 35.492188 4.914062 35.355469 4.703125 35.183594 4.570312 C 35.007812 4.4375 34.789062 4.371094 34.523438 4.371094 C 34.222656 4.371094 33.96875 4.445312 33.761719 4.59375 C 33.558594 4.738281 33.414062 4.9375 33.332031 5.183594 C 33.25 5.429688 33.207031 5.683594 33.207031 5.945312 C 33.207031 6.285156 33.257812 6.582031 33.355469 6.832031 C 33.453125 7.085938 33.605469 7.273438 33.8125 7.398438 C 34.019531 7.523438 34.242188 7.585938 34.484375 7.585938 C 34.777344 7.585938 35.027344 7.5 35.230469 7.332031 C 35.433594 7.160156 35.570312 6.910156 35.640625 6.574219 Z M 35.640625 6.574219 "/>
<path style=" stroke:none;fill-rule:nonzero;fill:rgb(13.72549%,12.156863%,12.54902%);fill-opacity:1;" d="M 36.824219 7.96875 L 36.824219 3.988281 L 37.347656 3.988281 L 37.347656 5.625 L 39.402344 5.625 L 39.402344 3.988281 L 39.925781 3.988281 L 39.925781 7.96875 L 39.402344 7.96875 L 39.402344 6.09375 L 37.347656 6.09375 L 37.347656 7.96875 Z M 36.824219 7.96875 "/>
<path style=" stroke:none;fill-rule:nonzero;fill:rgb(100%,100%,100%);fill-opacity:1;" d="M 26.640625 7.875 L 26.640625 4.367188 L 25.335938 4.367188 L 25.335938 3.898438 L 28.472656 3.898438 L 28.472656 4.367188 L 27.164062 4.367188 L 27.164062 7.875 Z M 26.640625 7.875 "/>
<path style=" stroke:none;fill-rule:nonzero;fill:rgb(100%,100%,100%);fill-opacity:1;" d="M 29.019531 7.875 L 29.019531 3.898438 L 31.875 3.898438 L 31.875 4.367188 L 29.542969 4.367188 L 29.542969 5.585938 L 31.730469 5.585938 L 31.730469 6.050781 L 29.542969 6.050781 L 29.542969 7.40625 L 31.96875 7.40625 L 31.96875 7.875 Z M 29.019531 7.875 "/>
<path style=" stroke:none;fill-rule:nonzero;fill:rgb(100%,100%,100%);fill-opacity:1;" d="M 35.511719 6.480469 L 36.035156 6.613281 C 35.925781 7.046875 35.726562 7.375 35.441406 7.601562 C 35.160156 7.828125 34.808594 7.945312 34.398438 7.945312 C 33.988281 7.945312 33.625 7.855469 33.359375 7.679688 C 33.089844 7.507812 32.886719 7.253906 32.75 6.921875 C 32.609375 6.59375 32.539062 6.234375 32.539062 5.855469 C 32.539062 5.441406 32.617188 5.082031 32.777344 4.773438 C 32.933594 4.464844 33.15625 4.230469 33.449219 4.070312 C 33.738281 3.910156 34.058594 3.828125 34.40625 3.828125 C 34.800781 3.828125 35.132812 3.929688 35.402344 4.132812 C 35.671875 4.335938 35.863281 4.621094 35.96875 4.988281 L 35.453125 5.109375 C 35.359375 4.820312 35.226562 4.609375 35.054688 4.476562 C 34.878906 4.34375 34.660156 4.28125 34.394531 4.28125 C 34.089844 4.28125 33.835938 4.351562 33.632812 4.5 C 33.429688 4.644531 33.285156 4.84375 33.203125 5.089844 C 33.121094 5.335938 33.078125 5.589844 33.078125 5.855469 C 33.078125 6.191406 33.128906 6.488281 33.226562 6.738281 C 33.324219 6.992188 33.476562 7.179688 33.683594 7.304688 C 33.890625 7.429688 34.113281 7.492188 34.355469 7.492188 C 34.648438 7.492188 34.894531 7.40625 35.097656 7.238281 C 35.300781 7.066406 35.441406 6.816406 35.511719 6.480469 Z M 35.511719 6.480469 "/>
<path style=" stroke:none;fill-rule:nonzero;fill:rgb(100%,100%,100%);fill-opacity:1;" d="M 36.695312 7.875 L 36.695312 3.898438 L 37.21875 3.898438 L 37.21875 5.53125 L 39.273438 5.53125 L 39.273438 3.898438 L 39.796875 3.898438 L 39.796875 7.875 L 39.273438 7.875 L 39.273438 6 L 37.21875 6 L 37.21875 7.875 Z M 36.695312 7.875 "/>
<path style=" stroke:none;fill-rule:nonzero;fill:rgb(13.72549%,12.156863%,12.54902%);fill-opacity:1;" d="M 4.113281 6.203125 L 4.113281 3.988281 L 3.589844 3.988281 L 3.589844 7.96875 L 4.113281 7.96875 Z M 4.113281 6.203125 "/>
<path style=" stroke:none;fill-rule:nonzero;fill:rgb(13.72549%,12.156863%,12.54902%);fill-opacity:1;" d="M 6.386719 6.886719 C 6.25 6.675781 6.105469 6.496094 5.953125 6.355469 C 5.878906 6.292969 5.773438 6.226562 5.636719 6.160156 C 6.015625 6.105469 6.296875 5.984375 6.476562 5.789062 C 6.660156 5.597656 6.75 5.359375 6.75 5.074219 C 6.75 4.855469 6.695312 4.65625 6.585938 4.476562 C 6.476562 4.292969 6.328125 4.167969 6.144531 4.097656 C 5.964844 4.027344 5.695312 3.988281 5.34375 3.988281 L 4.640625 3.988281 L 4.640625 4.429688 L 5.363281 4.429688 C 5.65625 4.429688 5.871094 4.488281 6.007812 4.613281 C 6.144531 4.734375 6.210938 4.886719 6.210938 5.074219 C 6.210938 5.203125 6.175781 5.324219 6.105469 5.433594 C 6.035156 5.542969 5.933594 5.621094 5.796875 5.671875 C 5.664062 5.722656 5.476562 5.746094 5.238281 5.746094 L 4.640625 5.746094 L 4.640625 6.203125 L 4.71875 6.203125 C 4.855469 6.203125 4.953125 6.207031 5.011719 6.21875 C 5.09375 6.242188 5.171875 6.277344 5.25 6.328125 C 5.328125 6.378906 5.417969 6.464844 5.515625 6.59375 C 5.613281 6.71875 5.738281 6.902344 5.894531 7.140625 L 6.414062 7.96875 L 7.074219 7.96875 Z M 6.386719 6.886719 "/>
<path style=" stroke:none;fill-rule:nonzero;fill:rgb(13.72549%,12.156863%,12.54902%);fill-opacity:1;" d="M 10.960938 4.917969 C 10.808594 4.601562 10.585938 4.359375 10.292969 4.183594 C 9.996094 4.007812 9.667969 3.917969 9.304688 3.917969 C 9.089844 3.917969 8.890625 3.945312 8.707031 4.003906 L 8.707031 4.507812 C 8.886719 4.417969 9.089844 4.371094 9.308594 4.371094 C 9.566406 4.371094 9.800781 4.4375 10.011719 4.570312 C 10.222656 4.703125 10.378906 4.890625 10.488281 5.132812 C 10.597656 5.375 10.652344 5.65625 10.652344 5.980469 C 10.652344 6.492188 10.523438 6.890625 10.269531 7.167969 C 10.015625 7.445312 9.691406 7.585938 9.296875 7.585938 C 8.90625 7.585938 8.589844 7.449219 8.335938 7.171875 C 8.078125 6.894531 7.949219 6.519531 7.949219 6.039062 C 7.949219 5.585938 8.027344 5.230469 8.179688 4.972656 L 8.179688 4.265625 C 8.09375 4.328125 8.015625 4.398438 7.9375 4.480469 C 7.585938 4.855469 7.410156 5.371094 7.410156 6.03125 C 7.410156 6.378906 7.484375 6.710938 7.636719 7.023438 C 7.789062 7.335938 8.011719 7.585938 8.304688 7.765625 C 8.597656 7.945312 8.929688 8.035156 9.300781 8.035156 C 9.644531 8.035156 9.964844 7.953125 10.261719 7.789062 C 10.558594 7.628906 10.785156 7.386719 10.949219 7.066406 C 11.109375 6.75 11.191406 6.386719 11.191406 5.984375 C 11.191406 5.582031 11.113281 5.230469 10.960938 4.917969 Z M 10.960938 4.917969 "/>
<path style=" stroke:none;fill-rule:nonzero;fill:rgb(13.72549%,12.156863%,12.54902%);fill-opacity:1;" d="M 13.164062 7.542969 C 13.035156 7.523438 12.921875 7.484375 12.820312 7.429688 C 12.667969 7.339844 12.558594 7.214844 12.492188 7.050781 C 12.429688 6.886719 12.398438 6.632812 12.398438 6.285156 L 12.398438 3.988281 L 11.875 3.988281 L 11.875 6.289062 C 11.875 6.710938 11.925781 7.042969 12.027344 7.285156 C 12.125 7.53125 12.292969 7.714844 12.53125 7.84375 C 12.703125 7.9375 12.917969 8 13.164062 8.023438 Z M 13.164062 7.542969 "/>
<path style=" stroke:none;fill-rule:nonzero;fill:rgb(13.72549%,12.156863%,12.54902%);fill-opacity:1;" d="M 14.460938 3.988281 L 14.460938 6.285156 C 14.460938 6.785156 14.378906 7.121094 14.214844 7.296875 C 14.097656 7.425781 13.921875 7.503906 13.691406 7.539062 L 13.691406 8.023438 C 13.957031 8 14.183594 7.929688 14.363281 7.816406 C 14.597656 7.667969 14.757812 7.476562 14.847656 7.242188 C 14.9375 7.007812 14.984375 6.6875 14.984375 6.289062 L 14.984375 3.988281 Z M 14.460938 3.988281 "/>
<path style=" stroke:none;fill-rule:nonzero;fill:rgb(13.72549%,12.156863%,12.54902%);fill-opacity:1;" d="M 16.355469 7.5 L 16.355469 3.988281 L 15.832031 3.988281 L 15.832031 7.96875 L 16.355469 7.96875 Z M 16.355469 7.5 "/>
<path style=" stroke:none;fill-rule:nonzero;fill:rgb(13.72549%,12.156863%,12.54902%);fill-opacity:1;" d="M 16.894531 7.5 L 18.304688 7.5 L 18.304688 7.96875 L 16.894531 7.96875 Z M 16.894531 7.5 "/>
<path style=" stroke:none;fill-rule:nonzero;fill:rgb(13.72549%,12.156863%,12.54902%);fill-opacity:1;" d="M 19.996094 3.988281 L 21.796875 3.988281 L 21.796875 4.460938 L 19.996094 4.460938 Z M 19.996094 3.988281 "/>
<path style=" stroke:none;fill-rule:nonzero;fill:rgb(13.72549%,12.156863%,12.54902%);fill-opacity:1;" d="M 19.996094 5.679688 L 21.648438 5.679688 L 21.648438 6.144531 L 19.996094 6.144531 Z M 19.996094 5.679688 "/>
<path style=" stroke:none;fill-rule:nonzero;fill:rgb(13.72549%,12.156863%,12.54902%);fill-opacity:1;" d="M 18.9375 3.988281 L 19.457031 3.988281 L 19.457031 7.96875 L 18.9375 7.96875 Z M 18.9375 3.988281 "/>
<path style=" stroke:none;fill-rule:nonzero;fill:rgb(13.72549%,12.156863%,12.54902%);fill-opacity:1;" d="M 19.996094 7.5 L 21.886719 7.5 L 21.886719 7.96875 L 19.996094 7.96875 Z M 19.996094 7.5 "/>
<path style=" stroke:none;fill-rule:nonzero;fill:rgb(13.72549%,12.156863%,12.54902%);fill-opacity:1;" d="M 22.3125 3.988281 L 23.09375 3.988281 L 23.09375 4.460938 L 22.3125 4.460938 Z M 22.3125 3.988281 "/>
<path style=" stroke:none;fill-rule:nonzero;fill:rgb(13.72549%,12.156863%,12.54902%);fill-opacity:1;" d="M 23.632812 3.988281 L 23.632812 7.96875 L 24.140625 7.96875 L 24.140625 4.460938 L 25.445312 4.460938 L 25.445312 3.988281 Z M 23.632812 3.988281 "/>
</g>
</svg>
